<svg xmlns="http://www.w3.org/2000/svg" version="1.1" xmlns:xlink="http://www.w3.org/1999/xlink" xmlns:svgjs="http://svgjs.dev/svgjs" width="1500" height="1500" viewBox="0 0 1500 1500"><rect width="1500" height="1500" fill="#61777f"></rect><g transform="matrix(0.6666666666666666,0,0,0.6666666666666666,249.39393939393938,615.5328000490092)"><svg viewBox="0 0 396 107" data-background-color="#61777f" preserveAspectRatio="xMidYMid meet" height="405" width="1500" xmlns="http://www.w3.org/2000/svg" xmlns:xlink="http://www.w3.org/1999/xlink"><g id="tight-bounds" transform="matrix(1,0,0,1,0.2400000000000091,-0.21114668608885268)"><svg viewBox="0 0 395.52 107.4222933721777" height="107.4222933721777" width="395.52"><g><svg viewBox="0 0 395.52 107.4222933721777" height="107.4222933721777" width="395.52"><g><svg viewBox="0 0 395.52 107.4222933721777" height="107.4222933721777" width="395.52"><g id="textblocktransform"><svg viewBox="0 0 395.52 107.4222933721777" height="107.4222933721777" width="395.52" id="textblock"><g><svg viewBox="0 0 395.52 107.4222933721777" height="107.4222933721777" width="395.52"><rect width="395.52" height="107.4222933721777" x="0" y="0" opacity="1" fill="#ffffff" data-fill-palette-color="tertiary"></rect><g transform="matrix(1,0,0,1,23.607599999999998,23.607599999999994)"><svg width="348.3048" viewBox="4.35 -35.25 205.93 35.6" height="60.20709337217772" data-palette-color="#61777f"><path d="M21.1-9.7L34.3-35.25 37.65-35.25 37.65 0 33.9 0 33.95-27.3 22.5-5.6 19.6-5.6 8.1-27.1 8.15 0 4.35 0 4.35-35.25 7.75-35.25 21.1-9.7ZM66.2-13.05L66.2-11.55 48.4-11.55Q48.6-7.3 50.7-5.13 52.8-2.95 56.65-2.95L56.65-2.95Q60.9-2.95 64.45-5.85L64.45-5.85 65.8-2.9Q64.2-1.4 61.7-0.53 59.2 0.35 56.6 0.35L56.6 0.35Q50.9 0.35 47.62-3 44.35-6.35 44.35-12.25L44.35-12.25Q44.35-16 45.8-18.88 47.25-21.75 49.87-23.35 52.5-24.95 55.85-24.95L55.85-24.95Q60.7-24.95 63.45-21.78 66.2-18.6 66.2-13.05L66.2-13.05ZM55.9-21.8Q52.7-21.8 50.77-19.8 48.85-17.8 48.5-14.15L48.5-14.15 62.65-14.15Q62.55-17.85 60.8-19.83 59.05-21.8 55.9-21.8L55.9-21.8ZM84.4-24.95Q93.15-24.95 93.15-15.3L93.15-15.3 93.15 0 89.1 0 89.1-15.05Q89.1-18.45 87.77-20 86.45-21.55 83.55-21.55L83.55-21.55Q80.2-21.55 78.2-19.5 76.2-17.45 76.2-13.95L76.2-13.95 76.2 0 72.15 0 72.15-24.35 76.15-24.35 76.15-20.35Q77.35-22.6 79.5-23.78 81.65-24.95 84.4-24.95L84.4-24.95ZM111.24-2.9Q112.34-2.9 113.44-3.05L113.44-3.05 113.24 0.15Q112.09 0.35 110.74 0.35L110.74 0.35Q106.34 0.35 104.12-1.95 101.89-4.25 101.89-8.35L101.89-8.35 101.89-21.15 97.14-21.15 97.14-24.35 101.89-24.35 101.89-31.75 105.94-31.75 105.94-24.35 112.84-24.35 112.84-21.15 105.94-21.15 105.94-8.65Q105.94-2.9 111.24-2.9L111.24-2.9ZM127.44-24.95Q132.09-24.95 134.37-22.58 136.64-20.2 136.64-15.35L136.64-15.35 136.64 0 132.69 0 132.69-4.15Q131.74-2 129.79-0.83 127.84 0.35 125.29 0.35L125.29 0.35Q122.94 0.35 120.97-0.6 118.99-1.55 117.84-3.25 116.69-4.95 116.69-7L116.69-7Q116.69-9.75 118.09-11.28 119.49-12.8 122.69-13.48 125.89-14.15 131.59-14.15L131.59-14.15 132.69-14.15 132.69-15.8Q132.69-18.85 131.44-20.23 130.19-21.6 127.39-21.6L127.39-21.6Q123.19-21.6 119.04-19L119.04-19 117.69-21.95Q119.59-23.3 122.27-24.13 124.94-24.95 127.44-24.95L127.44-24.95ZM125.84-2.85Q128.84-2.85 130.77-4.88 132.69-6.9 132.69-10.1L132.69-10.1 132.69-11.55 131.79-11.55Q127.39-11.55 125.09-11.18 122.79-10.8 121.82-9.93 120.84-9.05 120.84-7.35L120.84-7.35Q120.84-5.4 122.27-4.13 123.69-2.85 125.84-2.85L125.84-2.85ZM148.09 0L144.04 0 144.04-35.25 148.09-35.25 148.09 0ZM159.69 0L155.64 0 155.64-24.35 159.69-24.35 159.69 0ZM155.24-30.35L155.24-34.9 160.14-34.9 160.14-30.35 155.24-30.35ZM177.53 0.35Q173.93 0.35 171.28-1.2 168.63-2.75 167.21-5.58 165.78-8.4 165.78-12.2L165.78-12.2Q165.78-16 167.26-18.88 168.73-21.75 171.41-23.35 174.08-24.95 177.68-24.95L177.68-24.95Q180.13-24.95 182.48-24.08 184.83-23.2 186.28-21.75L186.28-21.75 184.93-18.75Q181.48-21.55 177.93-21.55L177.93-21.55Q174.18-21.55 172.08-19.1 169.98-16.65 169.98-12.2L169.98-12.2Q169.98-7.8 172.08-5.4 174.18-3 177.93-3L177.93-3Q181.48-3 184.93-5.8L184.93-5.8 186.28-2.8Q184.73-1.35 182.38-0.5 180.03 0.35 177.53 0.35L177.53 0.35ZM201.08-24.95Q205.73-24.95 208-22.58 210.28-20.2 210.28-15.35L210.28-15.35 210.28 0 206.33 0 206.33-4.15Q205.38-2 203.43-0.83 201.48 0.35 198.93 0.35L198.93 0.35Q196.58 0.35 194.61-0.6 192.63-1.55 191.48-3.25 190.33-4.95 190.33-7L190.33-7Q190.33-9.75 191.73-11.28 193.13-12.8 196.33-13.48 199.53-14.15 205.23-14.15L205.23-14.15 206.33-14.15 206.33-15.8Q206.33-18.85 205.08-20.23 203.83-21.6 201.03-21.6L201.03-21.6Q196.83-21.6 192.68-19L192.68-19 191.33-21.95Q193.23-23.3 195.91-24.13 198.58-24.95 201.08-24.95L201.08-24.95ZM199.48-2.85Q202.48-2.85 204.41-4.88 206.33-6.9 206.33-10.1L206.33-10.1 206.33-11.55 205.43-11.55Q201.03-11.55 198.73-11.18 196.43-10.8 195.46-9.93 194.48-9.05 194.48-7.35L194.48-7.35Q194.48-5.4 195.91-4.13 197.33-2.85 199.48-2.85L199.48-2.85Z" opacity="1" transform="matrix(1,0,0,1,0,0)" fill="#61777f" class="wordmark-text-0" data-fill-palette-color="quaternary" id="text-0"></path></svg></g></svg></g></svg></g></svg></g></svg></g><defs></defs></svg><rect width="395.52" height="107.4222933721777" fill="none" stroke="none" visibility="hidden"></rect></g></svg></g></svg>